<svg width="45" height="50" viewBox="0 0 45 50" fill="none" xmlns="http://www.w3.org/2000/svg">
<path fill-rule="evenodd" clip-rule="evenodd" d="M25.3378 1.31714C23.5736 0.325927 21.4202 0.325927 19.656 1.31714L2.95904 10.698C1.13132 11.7249 0 13.6581 0 15.7545V34.2453C0 36.3417 1.13132 38.275 2.95904 39.3018L19.656 48.6827C21.4202 49.6739 23.5736 49.6739 25.3378 48.6827L42.0348 39.3018C43.8625 38.275 44.9938 36.3417 44.9938 34.2453V15.7545C44.9938 13.6581 43.8625 11.7249 42.0348 10.698L25.3378 1.31714ZM25.2749 6.74988C23.888 5.95088 22.1661 5.94187 20.7705 6.7263L7.39631 14.2434C6.12242 14.9594 5.33773 16.2823 5.33773 17.7138V22.1158C5.33773 23.5882 6.16741 24.9421 7.49865 25.6419L21.7077 33.1117C23.0418 33.8131 24.7076 33.3292 25.4283 32.0309C26.1491 30.7327 25.6518 29.1116 24.3177 28.4103L10.829 21.3192V18.485L22.9956 11.6466L35.5994 18.9078C36.9043 19.6596 38.5883 19.2396 39.3608 17.9698C40.1333 16.7001 39.7018 15.0613 38.3969 14.3096L25.2749 6.74988ZM24.5771 17.8085C23.261 17.0756 21.5835 17.5198 20.8305 18.8006C20.0774 20.0814 20.5339 21.7137 21.85 22.4465L34.1672 29.3047V31.4731L22.0006 38.3114L9.3967 31.0502C8.09186 30.2985 6.40784 30.7184 5.63534 31.9882C4.86284 33.258 5.29439 34.8967 6.59923 35.6484L19.7212 43.2082C21.1081 44.0072 22.83 44.0162 24.2257 43.2317L37.5998 35.7147C38.8737 34.9987 39.6584 33.6758 39.6584 32.2442V28.53C39.6584 27.0926 38.8674 25.7653 37.5853 25.0514L36.2218 27.3704L37.5853 25.0514L24.5771 17.8085Z" fill="#23262F"/>
</svg>
