<svg width="727" height="891" viewBox="0 0 727 891" fill="none" xmlns="http://www.w3.org/2000/svg">
<path d="M718.09 650.26H513.83V852.47H718.09V650.26Z" stroke="#706F78" stroke-width="2" stroke-linecap="round" stroke-linejoin="round"/>
<path d="M374.72 829.84C533.347 829.84 661.94 701.247 661.94 542.62C661.94 383.993 533.347 255.4 374.72 255.4C216.093 255.4 87.5 383.993 87.5 542.62C87.5 701.247 216.093 829.84 374.72 829.84Z" fill="#161618" stroke="#7E7D86" stroke-width="2" stroke-linecap="round" stroke-linejoin="round"/>
<path d="M374.72 815.63C525.499 815.63 647.73 693.399 647.73 542.62C647.73 391.841 525.499 269.61 374.72 269.61C223.941 269.61 101.71 391.841 101.71 542.62C101.71 693.399 223.941 815.63 374.72 815.63Z" fill="#161618" stroke="#7E7D86" stroke-width="2" stroke-linecap="round" stroke-linejoin="round"/>
<path d="M267.56 478.52C278.29 423.52 324.14 384.52 374.24 383.87C423.68 383.27 468.38 420.23 476.11 455.26C478.57 466.4 478.54 483.03 478.52 500.18C478.52 512.18 477.98 522.91 477.31 531.81C477.002 535.942 477.719 540.086 479.4 543.874C481.08 547.662 483.67 550.975 486.94 553.52L490.55 556.33" stroke="url(#paint0_linear_609_19057)" stroke-width="2" stroke-miterlimit="10"/>
<path d="M256.33 507.4L271.67 504.33C276.297 503.42 280.556 501.173 283.918 497.867C287.281 494.561 289.601 490.341 290.59 485.73C300.38 439.24 337.32 405.83 376.65 407.13C396.88 407.8 416.26 417.13 431.45 432.2C438.022 438.802 443.225 446.637 446.76 455.255C450.295 463.873 452.093 473.105 452.05 482.42V537.54C452.05 543.474 453.262 549.345 455.611 554.794C457.96 560.243 461.396 565.155 465.71 569.23C470.78 574.02 476.88 573.68 481.95 578.47" stroke="url(#paint1_linear_609_19057)" stroke-width="2" stroke-miterlimit="10"/>
<path d="M254.73 533.74L276.16 530.66C285.975 529.994 295.197 525.72 302.05 518.66C308.332 512.776 312.983 505.366 315.55 497.15C316.557 494.06 317.143 490.847 317.29 487.6C317.29 457.41 341.04 432.16 371.21 431.22H375.05C375.674 431.205 376.299 431.235 376.92 431.31C407.14 433.23 430.39 458.9 430.39 489.18V542.78C430.609 547.151 431.28 551.487 432.39 555.72C436.74 572.16 446.86 582.93 452.81 588.28L479.33 602.07" stroke="url(#paint2_linear_609_19057)" stroke-width="2" stroke-miterlimit="10"/>
<path d="M254.73 560.43C260.01 560.43 267.73 559.28 277.19 558.6C285.14 558.03 289.12 554.66 292.43 553.92C307.36 550.57 317.2 541.12 321.3 537.08C326.63 531.83 333.74 524.82 336.54 513.81C336.89 512.44 337.13 511.2 338.15 494.56C339.26 476.56 339.09 476.24 339.75 474.56C343.91 463.77 358.07 455.93 371.84 456.11C386.19 456.31 398.73 465.21 403.92 476.17C405.5 479.5 406.71 483.68 406.33 498.62C406.05 509.32 405.62 526.14 402.33 537.93C394.33 566.42 364.76 582.51 340.57 595.68C315.194 609.403 287.417 618.118 258.75 621.35" stroke="url(#paint3_linear_609_19057)" stroke-width="2" stroke-miterlimit="10"/>
<path d="M371.43 485.77C370.33 497.22 376.68 529.97 357.04 550.39C337.97 570.23 305.49 579.11 292.43 582.8C279.374 586.471 265.882 588.358 252.32 588.41" stroke="url(#paint4_linear_609_19057)" stroke-width="2" stroke-miterlimit="10"/>
<path d="M409.54 577.18C420.68 597.1 433.28 607.86 443.22 614.08C443.22 614.08 447.22 616.58 476.91 630.92" stroke="url(#paint5_linear_609_19057)" stroke-width="2" stroke-miterlimit="10"/>
<path d="M268.37 649.37C275.081 649.272 281.778 648.738 288.42 647.77C309.49 644.69 322.82 638.24 349.42 626.91C359.48 622.62 374.9 616.15 394.34 608.46L439.77 638.75C446.318 643.122 453.622 646.238 461.31 647.94L471.31 652.22" stroke="url(#paint6_linear_609_19057)" stroke-width="2" stroke-miterlimit="10"/>
<path d="M285.21 672.32C299.49 669.71 314.8 666.32 330.93 661.89C349.698 656.741 368.175 650.582 386.28 643.44C398.49 649.18 411.87 654.89 426.38 660.29C438.09 664.64 449.38 668.35 460.07 671.52" stroke="url(#paint7_linear_609_19057)" stroke-width="2" stroke-miterlimit="10"/>
<path d="M311.68 691.25C335.906 687.361 359.594 680.649 382.26 671.25C391.38 675.88 401.55 680.53 412.74 684.89C421.74 688.38 430.32 691.29 438.41 693.71" stroke="url(#paint8_linear_609_19057)" stroke-width="2" stroke-miterlimit="10"/>
<path d="M374.72 289.81C373.129 289.81 371.603 289.178 370.477 288.053C369.352 286.928 368.72 285.401 368.72 283.81V202.12C368.72 200.529 369.352 199.003 370.477 197.877C371.603 196.752 373.129 196.12 374.72 196.12C376.311 196.12 377.837 196.752 378.963 197.877C380.088 199.003 380.72 200.529 380.72 202.12V283.81C380.72 285.401 380.088 286.928 378.963 288.053C377.837 289.178 376.311 289.81 374.72 289.81Z" fill="#161618" stroke="#706F78" stroke-width="2" stroke-linecap="round" stroke-linejoin="round"/>
<path d="M375 889.11C373.409 889.11 371.883 888.478 370.757 887.353C369.632 886.228 369 884.701 369 883.11V801.42C369 799.829 369.632 798.303 370.757 797.177C371.883 796.052 373.409 795.42 375 795.42C376.591 795.42 378.117 796.052 379.243 797.177C380.368 798.303 381 799.829 381 801.42V883.11C381 884.701 380.368 886.228 379.243 887.353C378.117 888.478 376.591 889.11 375 889.11Z" fill="#161618" stroke="#706F78" stroke-width="2" stroke-linecap="round" stroke-linejoin="round"/>
<path d="M715.36 548.47H633.68C632.089 548.47 630.563 547.838 629.437 546.713C628.312 545.588 627.68 544.061 627.68 542.47C627.68 540.879 628.312 539.353 629.437 538.227C630.563 537.102 632.089 536.47 633.68 536.47H715.36C716.951 536.47 718.477 537.102 719.603 538.227C720.728 539.353 721.36 540.879 721.36 542.47C721.36 544.061 720.728 545.588 719.603 546.713C718.477 547.838 716.951 548.47 715.36 548.47Z" fill="#161618" stroke="#706F78" stroke-width="2" stroke-linecap="round" stroke-linejoin="round"/>
<path d="M116.06 548.76H34.3799C32.7886 548.76 31.2625 548.128 30.1372 547.003C29.012 545.877 28.3799 544.351 28.3799 542.76C28.3799 541.169 29.012 539.643 30.1372 538.517C31.2625 537.392 32.7886 536.76 34.3799 536.76H116.06C117.651 536.76 119.177 537.392 120.303 538.517C121.428 539.643 122.06 541.169 122.06 542.76C122.06 544.351 121.428 545.877 120.303 547.003C119.177 548.128 117.651 548.76 116.06 548.76Z" fill="#161618" stroke="#706F78" stroke-width="2" stroke-linecap="round" stroke-linejoin="round"/>
<path d="M58.236 282.33L58.236 282.33L114.036 185.67C114.036 185.67 114.036 185.67 114.036 185.67C114.439 184.973 115.018 184.394 115.716 183.991C116.413 183.589 117.205 183.377 118.01 183.377C118.815 183.377 119.607 183.589 120.304 183.991C121.002 184.394 121.581 184.973 121.984 185.67C121.984 185.67 121.984 185.67 121.984 185.67L177.794 282.33L233.594 378.99L233.595 378.992C233.999 379.689 234.213 380.48 234.213 381.286C234.214 382.091 234.002 382.883 233.599 383.581C233.196 384.278 232.617 384.857 231.918 385.259C231.22 385.661 230.428 385.872 229.622 385.87H229.62H6.4007C5.59566 385.87 4.80493 385.657 4.10787 385.255C3.41082 384.852 2.83192 384.273 2.42928 383.576C2.02665 382.879 1.81445 382.088 1.81397 381.283C1.81349 380.478 2.02474 379.687 2.42654 378.989L58.236 282.33Z" fill="url(#paint9_linear_609_19057)" stroke="#EDEDEF" stroke-width="2"/>
<path d="M108 347.83C108 342.55 111.15 338.53 115.71 337.51C123.08 335.85 129.29 342.77 127.89 350.2C127.534 352.534 126.335 354.656 124.52 356.165C122.705 357.674 120.399 358.466 118.04 358.39C112.05 358.39 108 353.8 108 347.83ZM112.25 323.34L110.11 249.82C110.061 247.718 110.842 245.682 112.283 244.151C113.724 242.62 115.709 241.718 117.81 241.64H118.05C119.093 241.639 120.126 241.843 121.09 242.242C122.054 242.64 122.93 243.225 123.667 243.963C124.405 244.7 124.99 245.576 125.388 246.54C125.787 247.504 125.991 248.537 125.99 249.58V249.82L123.85 323.34C123.85 323.355 123.847 323.369 123.842 323.382C123.836 323.396 123.828 323.408 123.818 323.418C123.808 323.428 123.795 323.436 123.782 323.442C123.769 323.447 123.754 323.45 123.74 323.45H112.32C112.306 323.45 112.291 323.447 112.278 323.442C112.265 323.436 112.252 323.428 112.242 323.418C112.232 323.408 112.224 323.396 112.218 323.382C112.213 323.369 112.21 323.355 112.21 323.34H112.25Z" fill="url(#paint10_linear_609_19057)" stroke="#161618" stroke-width="2" stroke-miterlimit="10"/>
<path d="M711.77 114.37H555.77C552.117 114.373 548.615 115.826 546.033 118.41C543.45 120.994 542 124.497 542 128.15V251.39C542 255.045 543.452 258.55 546.036 261.134C548.62 263.718 552.125 265.17 555.78 265.17H711.78C715.435 265.17 718.94 263.718 721.524 261.134C724.108 258.55 725.56 255.045 725.56 251.39V128.15C725.56 126.34 725.203 124.547 724.51 122.874C723.817 121.202 722.801 119.682 721.52 118.403C720.24 117.123 718.719 116.108 717.046 115.416C715.373 114.724 713.58 114.369 711.77 114.37ZM641.57 195.55V222.8H625.94V195.55C621.502 193.739 617.831 190.442 615.555 186.223C613.279 182.004 612.539 177.125 613.462 172.422C614.385 167.718 616.914 163.481 620.615 160.435C624.317 157.389 628.961 155.724 633.755 155.724C638.549 155.724 643.193 157.389 646.895 160.435C650.596 163.481 653.125 167.718 654.048 172.422C654.971 177.125 654.231 182.004 651.955 186.223C649.679 190.442 646.008 193.739 641.57 195.55Z" fill="#161618" stroke="#706F78" stroke-width="2" stroke-linecap="round" stroke-linejoin="round"/>
<path d="M686.29 37.7101C673.37 25.8401 655.94 19.3001 637.2 19.3001H636.2C617.682 19.3239 599.929 26.6907 586.835 39.785C573.741 52.8793 566.374 70.632 566.35 89.1501V114.37H586V89.1501C586.024 75.8499 591.321 63.1018 600.729 53.7009C610.138 44.2999 622.89 39.0133 636.19 39.0001H637.19C665.8 39.0001 687.37 59.0601 687.37 85.6501V87.1701C687.452 89.7242 688.523 92.1465 690.359 93.9244C692.195 95.7023 694.65 96.6964 697.205 96.6964C699.761 96.6964 702.216 95.7023 704.051 93.9244C705.887 92.1465 706.959 89.7242 707.04 87.1701V85.6501C707.135 76.6513 705.336 67.7331 701.761 59.4742C698.187 51.2153 692.916 43.8003 686.29 37.7101Z" fill="#161618" stroke="#706F78" stroke-width="2" stroke-linecap="round" stroke-linejoin="round"/>
<path d="M539.2 20.5201H232.73C217.078 20.5201 204.39 33.2084 204.39 48.8601V100.05C204.39 115.702 217.078 128.39 232.73 128.39H539.2C554.852 128.39 567.54 115.702 567.54 100.05V48.8601C567.54 33.2084 554.852 20.5201 539.2 20.5201Z" fill="#161618" stroke="#706F78" stroke-width="2" stroke-linecap="round" stroke-linejoin="round"/>
<path d="M539.2 1.8501H232.73C217.078 1.8501 204.39 14.5384 204.39 30.1901V81.3801C204.39 97.0319 217.078 109.72 232.73 109.72H539.2C554.852 109.72 567.54 97.0319 567.54 81.3801V30.1901C567.54 14.5384 554.852 1.8501 539.2 1.8501Z" fill="#161618" stroke="#706F78" stroke-width="2" stroke-linecap="round" stroke-linejoin="round"/>
<path fill-rule="evenodd" clip-rule="evenodd" d="M269.88 74.03C279.352 74.03 287.03 66.3517 287.03 56.88C287.03 47.4083 279.352 39.73 269.88 39.73C260.409 39.73 252.73 47.4083 252.73 56.88C252.73 66.3517 260.409 74.03 269.88 74.03ZM329.89 74.03C339.362 74.03 347.04 66.3517 347.04 56.88C347.04 47.4083 339.362 39.73 329.89 39.73C320.419 39.73 312.74 47.4083 312.74 56.88C312.74 66.3517 320.419 74.03 329.89 74.03ZM392.675 39.9594C402.024 41.477 408.373 50.2864 406.856 59.6357C405.338 68.985 396.529 75.3338 387.179 73.8162C377.83 72.2986 371.481 63.4893 372.999 54.14C374.516 44.7907 383.326 38.4418 392.675 39.9594Z" fill="#706F78"/>
<path d="M406.856 59.6357L405.869 59.4755L406.856 59.6357ZM392.675 39.9594L392.835 38.9723L392.675 39.9594ZM387.179 73.8162L387.34 72.8292L387.179 73.8162ZM372.999 54.14L372.012 53.9797L372.999 54.14ZM286.03 56.88C286.03 65.7994 278.8 73.03 269.88 73.03V75.03C279.904 75.03 288.03 66.904 288.03 56.88H286.03ZM269.88 40.73C278.8 40.73 286.03 47.9606 286.03 56.88H288.03C288.03 46.856 279.904 38.73 269.88 38.73V40.73ZM253.73 56.88C253.73 47.9606 260.961 40.73 269.88 40.73V38.73C259.856 38.73 251.73 46.856 251.73 56.88H253.73ZM269.88 73.03C260.961 73.03 253.73 65.7994 253.73 56.88H251.73C251.73 66.904 259.856 75.03 269.88 75.03V73.03ZM346.04 56.88C346.04 65.7994 338.81 73.03 329.89 73.03V75.03C339.914 75.03 348.04 66.904 348.04 56.88H346.04ZM329.89 40.73C338.81 40.73 346.04 47.9606 346.04 56.88H348.04C348.04 46.856 339.914 38.73 329.89 38.73V40.73ZM313.74 56.88C313.74 47.9606 320.971 40.73 329.89 40.73V38.73C319.866 38.73 311.74 46.856 311.74 56.88H313.74ZM329.89 73.03C320.971 73.03 313.74 65.7994 313.74 56.88H311.74C311.74 66.904 319.866 75.03 329.89 75.03V73.03ZM407.843 59.7959C409.449 49.9015 402.73 40.5784 392.835 38.9723L392.515 40.9465C401.319 42.3756 407.298 50.6713 405.869 59.4755L407.843 59.7959ZM387.019 74.8033C396.914 76.4094 406.237 69.6904 407.843 59.7959L405.869 59.4755C404.439 68.2796 396.144 74.2583 387.34 72.8292L387.019 74.8033ZM372.012 53.9797C370.406 63.8742 377.125 73.1972 387.019 74.8033L387.34 72.8292C378.535 71.4 372.557 63.1044 373.986 54.3002L372.012 53.9797ZM392.835 38.9723C382.941 37.3662 373.618 44.0853 372.012 53.9797L373.986 54.3002C375.415 45.496 383.711 39.5174 392.515 40.9465L392.835 38.9723Z" fill="#706F78"/>
<path fill-rule="evenodd" clip-rule="evenodd" d="M433.78 56.88C433.78 47.9606 441.011 40.73 449.93 40.73C458.85 40.73 466.08 47.9606 466.08 56.88C466.08 65.7994 458.85 73.03 449.93 73.03C441.011 73.03 433.78 65.7994 433.78 56.88ZM449.93 38.73C439.906 38.73 431.78 46.856 431.78 56.88C431.78 66.904 439.906 75.03 449.93 75.03C459.954 75.03 468.08 66.904 468.08 56.88C468.08 46.856 459.954 38.73 449.93 38.73ZM493.79 56.88C493.79 47.9606 501.021 40.73 509.94 40.73C518.859 40.73 526.09 47.9606 526.09 56.88C526.09 65.7994 518.859 73.03 509.94 73.03C501.021 73.03 493.79 65.7994 493.79 56.88ZM509.94 38.73C499.916 38.73 491.79 46.856 491.79 56.88C491.79 66.904 499.916 75.03 509.94 75.03C519.964 75.03 528.09 66.904 528.09 56.88C528.09 46.856 519.964 38.73 509.94 38.73Z" fill="#706F78"/>
<path d="M634.09 114.94V153.73" stroke="#706F78" stroke-width="2" stroke-linecap="round" stroke-linejoin="round"/>
<path d="M634.09 223.66V263.45" stroke="#706F78" stroke-width="2" stroke-linecap="round" stroke-linejoin="round"/>
<defs>
<linearGradient id="paint0_linear_609_19057" x1="379.055" y1="383.863" x2="379.055" y2="556.33" gradientUnits="userSpaceOnUse">
<stop stop-color="#B0FF06"/>
<stop offset="1" stop-color="#06FFC3" stop-opacity="0.81"/>
</linearGradient>
<linearGradient id="paint1_linear_609_19057" x1="369.14" y1="407.093" x2="369.14" y2="578.47" gradientUnits="userSpaceOnUse">
<stop stop-color="#B0FF06"/>
<stop offset="1" stop-color="#06FFC3" stop-opacity="0.81"/>
</linearGradient>
<linearGradient id="paint2_linear_609_19057" x1="367.03" y1="431.216" x2="367.03" y2="602.07" gradientUnits="userSpaceOnUse">
<stop stop-color="#B0FF06"/>
<stop offset="1" stop-color="#06FFC3" stop-opacity="0.81"/>
</linearGradient>
<linearGradient id="paint3_linear_609_19057" x1="330.565" y1="456.107" x2="330.565" y2="621.35" gradientUnits="userSpaceOnUse">
<stop stop-color="#B0FF06"/>
<stop offset="1" stop-color="#06FFC3" stop-opacity="0.81"/>
</linearGradient>
<linearGradient id="paint4_linear_609_19057" x1="311.949" y1="485.77" x2="311.949" y2="588.41" gradientUnits="userSpaceOnUse">
<stop stop-color="#B0FF06"/>
<stop offset="1" stop-color="#06FFC3" stop-opacity="0.81"/>
</linearGradient>
<linearGradient id="paint5_linear_609_19057" x1="443.225" y1="577.18" x2="443.225" y2="630.92" gradientUnits="userSpaceOnUse">
<stop stop-color="#B0FF06"/>
<stop offset="1" stop-color="#06FFC3" stop-opacity="0.81"/>
</linearGradient>
<linearGradient id="paint6_linear_609_19057" x1="369.84" y1="608.46" x2="369.84" y2="652.22" gradientUnits="userSpaceOnUse">
<stop stop-color="#B0FF06"/>
<stop offset="1" stop-color="#06FFC3" stop-opacity="0.81"/>
</linearGradient>
<linearGradient id="paint7_linear_609_19057" x1="372.64" y1="643.44" x2="372.64" y2="672.32" gradientUnits="userSpaceOnUse">
<stop stop-color="#B0FF06"/>
<stop offset="1" stop-color="#06FFC3" stop-opacity="0.81"/>
</linearGradient>
<linearGradient id="paint8_linear_609_19057" x1="375.045" y1="671.25" x2="375.045" y2="693.71" gradientUnits="userSpaceOnUse">
<stop stop-color="#B0FF06"/>
<stop offset="1" stop-color="#06FFC3" stop-opacity="0.81"/>
</linearGradient>
<linearGradient id="paint9_linear_609_19057" x1="0.8191" y1="284.609" x2="234.178" y2="283.878" gradientUnits="userSpaceOnUse">
<stop stop-color="#B0FF06"/>
<stop offset="1" stop-color="#06FFC3"/>
</linearGradient>
<linearGradient id="paint10_linear_609_19057" x1="108" y1="300.009" x2="128" y2="300" gradientUnits="userSpaceOnUse">
<stop stop-color="#B0FF06"/>
<stop offset="1" stop-color="#06FFC3"/>
</linearGradient>
</defs>
</svg>
